<?xml version="1.0" encoding="utf-8"?>
<!-- Generator: Adobe Illustrator 16.0.0, SVG Export Plug-In . SVG Version: 6.00 Build 0)  -->
<!DOCTYPE svg PUBLIC "-//W3C//DTD SVG 1.1//EN" "http://www.w3.org/Graphics/SVG/1.1/DTD/svg11.dtd">
<svg version="1.1" id="Layer_1" xmlns="http://www.w3.org/2000/svg" xmlns:xlink="http://www.w3.org/1999/xlink" x="0px" y="0px"
	 width="25px" height="33px" viewBox="0 0 25 33" enable-background="new 0 0 25 33" xml:space="preserve">
<g>
	<g>
		<path fill="#010101" d="M12.5,26c-0.828,0-1.5,0.672-1.5,1.5s0.672,1.5,1.5,1.5s1.5-0.672,1.5-1.5S13.328,26,12.5,26z M22,0H3
			C1.343,0,0,1.344,0,3v27c0,1.656,1.343,3,3,3h19c1.657,0,3-1.344,3-3V3C25,1.344,23.657,0,22,0z M23,31H2V2h21V31z M21,22H4v2h17
			V22z"/>
	</g>
</g>
</svg>
