<?xml version="1.0" encoding="utf-8"?>
<!-- Generator: Adobe Illustrator 16.0.0, SVG Export Plug-In . SVG Version: 6.00 Build 0)  -->
<!DOCTYPE svg PUBLIC "-//W3C//DTD SVG 1.1//EN" "http://www.w3.org/Graphics/SVG/1.1/DTD/svg11.dtd">
<svg version="1.1" id="Layer_1" xmlns="http://www.w3.org/2000/svg" xmlns:xlink="http://www.w3.org/1999/xlink" x="0px" y="0px"
	 width="27px" height="18px" viewBox="0 0 27 18" enable-background="new 0 0 27 18" xml:space="preserve">
<path fill="#808080" d="M27,3c0-1.657-1.343-3-3-3H3C1.343,0,0,1.343,0,3v12c0,1.657,1.343,3,3,3h21c1.657,0,3-1.343,3-3V3z M25,16
	H2V2h23V16z"/>
<polygon fill="#808080" points="6.416,10.355 6.056,10.01 5.012,8.966 5.017,8.96 5,8.944 5.349,8.585 6.409,7.525 6.417,7.532 
	9.965,4 11.379,5.415 7.834,8.944 11.379,12.475 9.965,13.889 "/>
<polygon fill="#808080" points="15.616,12.475 19.161,8.944 15.616,5.415 17.029,4 20.579,7.532 20.939,7.878 22,8.939 
	21.646,9.303 20.586,10.363 20.578,10.355 17.029,13.889 "/>
</svg>
