<?xml version="1.0" encoding="utf-8"?>
<!-- Generator: Adobe Illustrator 16.0.4, SVG Export Plug-In . SVG Version: 6.00 Build 0)  -->
<!DOCTYPE svg PUBLIC "-//W3C//DTD SVG 1.1//EN" "http://www.w3.org/Graphics/SVG/1.1/DTD/svg11.dtd">
<svg version="1.1" id="Layer_1" xmlns="http://www.w3.org/2000/svg" xmlns:xlink="http://www.w3.org/1999/xlink" x="0px" y="0px"
	 width="26.375px" height="34.658px" viewBox="-0.688 -0.908 26.375 34.658" enable-background="new -0.688 -0.908 26.375 34.658"
	 xml:space="preserve">
<g>
	<g>
		<path d="M22.312,33.092h-20c-1.654,0-3-1.346-3-3v-28c0-1.654,1.346-3,3-3h20c1.654,0,3,1.346,3,3v28
			C25.312,31.746,23.967,33.092,22.312,33.092z M2.312,1.092c-0.551,0-1,0.449-1,1v28c0,0.552,0.449,1,1,1h20c0.552,0,1-0.448,1-1
			v-28c0-0.551-0.448-1-1-1H2.312z"/>
	</g>
</g>
</svg>
