<?xml version="1.0" encoding="utf-8"?>
<!-- Generator: Adobe Illustrator 16.0.4, SVG Export Plug-In . SVG Version: 6.00 Build 0)  -->
<!DOCTYPE svg PUBLIC "-//W3C//DTD SVG 1.1//EN" "http://www.w3.org/Graphics/SVG/1.1/DTD/svg11.dtd">
<svg version="1.1" id="Layer_1" xmlns="http://www.w3.org/2000/svg" xmlns:xlink="http://www.w3.org/1999/xlink" x="0px" y="0px"
	 width="53px" height="37px" viewBox="0 0 53 37" enable-background="new 0 0 53 37" xml:space="preserve">
<g>
	<g>
		<path d="M50,37H3c-1.654,0-3-1.346-3-3V3c0-1.654,1.346-3,3-3h47c1.654,0,3,1.346,3,3v31C53,35.654,51.654,37,50,37z M3,2
			C2.449,2,2,2.449,2,3v31c0,0.552,0.449,1,1,1h47c0.552,0,1-0.448,1-1V3c0-0.551-0.448-1-1-1H3z"/>
	</g>
</g>
</svg>
