<?xml version="1.0" encoding="utf-8"?>
<!-- Generator: Adobe Illustrator 16.0.0, SVG Export Plug-In . SVG Version: 6.00 Build 0)  -->
<!DOCTYPE svg PUBLIC "-//W3C//DTD SVG 1.1//EN" "http://www.w3.org/Graphics/SVG/1.1/DTD/svg11.dtd">
<svg version="1.1" id="Layer_1" xmlns="http://www.w3.org/2000/svg" xmlns:xlink="http://www.w3.org/1999/xlink" x="0px" y="0px"
	 width="56px" height="37px" viewBox="0 0 56 37" enable-background="new 0 0 56 37" xml:space="preserve">
<g>
	<g>
		<g>
			<path fill-rule="evenodd" clip-rule="evenodd" fill="#010101" d="M53,0H3C1.343,0,0,1.344,0,3v31c0,1.656,1.343,3,3,3h50
				c1.657,0,3-1.344,3-3V3C56,1.344,54.657,0,53,0z M54,35H2V2h52V35z"/>
		</g>
	</g>
	<path fill-rule="evenodd" clip-rule="evenodd" fill="#010101" d="M28,30.5c0.828,0,1.5,0.672,1.5,1.5s-0.672,1.5-1.5,1.5
		s-1.5-0.672-1.5-1.5S27.172,30.5,28,30.5z"/>
	<path id="up" fill-rule="evenodd" clip-rule="evenodd" fill="#010101" d="M5,27.975h46v1H5V27.975z"/>
	<path id="over" fill-rule="evenodd" clip-rule="evenodd" fill="#010101" d="M5,3.625h46v25.35H5V3.625z"/>
</g>
</svg>
