<?xml version="1.0" encoding="utf-8"?>
<!-- Generator: Adobe Illustrator 16.0.0, SVG Export Plug-In . SVG Version: 6.00 Build 0)  -->
<!DOCTYPE svg PUBLIC "-//W3C//DTD SVG 1.1//EN" "http://www.w3.org/Graphics/SVG/1.1/DTD/svg11.dtd">
<svg version="1.1" id="Layer_1" xmlns="http://www.w3.org/2000/svg" xmlns:xlink="http://www.w3.org/1999/xlink" x="0px" y="0px"
	 width="16px" height="24px" viewBox="0 0 16 24" enable-background="new 0 0 16 24" xml:space="preserve">
<g>
	<g>
		<path fill="#010101" d="M13,0H3C1.343,0,0,1.344,0,3v18c0,1.656,1.343,3,3,3h10c1.657,0,3-1.344,3-3V3C16,1.344,14.657,0,13,0z
			 M14,22H2V2h12V22z M8,18c-0.828,0-1.5,0.672-1.5,1.5S7.172,21,8,21s1.5-0.672,1.5-1.5S8.828,18,8,18z M11.833,15.667H4.167V17
			h7.666V15.667z"/>
	</g>
</g>
</svg>
