<?xml version="1.0" encoding="UTF-8" standalone="no"?>
<svg width="40px" height="47px" viewBox="0 0 40 47" version="1.1" xmlns="http://www.w3.org/2000/svg" xmlns:xlink="http://www.w3.org/1999/xlink" xmlns:sketch="http://www.bohemiancoding.com/sketch/ns">
    <!-- Generator: Sketch 3.1.1 (8761) - http://www.bohemiancoding.com/sketch -->
    <title>Artboard 1</title>
    <desc>Created with Sketch.</desc>
    <defs></defs>
    <g id="Page-1" stroke="none" stroke-width="1" fill="none" fill-rule="evenodd" sketch:type="MSPage">
        <g id="Artboard-1" sketch:type="MSArtboardGroup">
            <g id="Group-2" sketch:type="MSLayerGroup">
                <rect id="Rectangle-path-13" fill="#EC008C" sketch:type="MSShapeGroup" x="0" y="0" width="40" height="16.1142857"></rect>
                <rect id="Rectangle-path-14" fill-opacity="0.1" fill="#EC008C" sketch:type="MSShapeGroup" x="0" y="16.1142857" width="40" height="6.71428571"></rect>
                <rect id="Rectangle-path-6" opacity="0.5" fill="#F4F4F6" sketch:type="MSShapeGroup" x="1.33333333" y="1.34285714" width="4" height="2.01428571"></rect>
                <rect id="Rectangle-path-15" opacity="0.5" fill="#F4F4F6" sketch:type="MSShapeGroup" x="37.3333333" y="1.34285714" width="1.33333333" height="1.34285714"></rect>
                <rect id="Rectangle-path-16" opacity="0.5" fill="#F4F4F6" sketch:type="MSShapeGroup" x="16" y="12.0857143" width="8.06666692" height="0.671428571"></rect>
                <path d="M21.3285714,5.74071441 L19.3380952,5.74071441 L19.3380952,3.37880952 L17.9952381,3.37880952 L17.9952381,9.44547645 L19.3380952,9.44547645 L19.3380952,7.08357156 L19.3380952,7.08357156 L21.3285714,7.08357156 L21.3285714,9.44547645 L22.6714286,9.44547645 L22.6714286,3.37880952 L21.3285714,3.37880952 L21.3285714,5.74071441 Z" id="Rectangle-path-17" opacity="0.5" fill="#F4F4F6" sketch:type="MSShapeGroup"></path>
                <rect id="Rectangle-path-7" opacity="0.5" fill="#F4F4F6" sketch:type="MSShapeGroup" x="13.3333333" y="13.4285714" width="14.0934245" height="0.671428571"></rect>
                <rect id="Rectangle-path-18" opacity="0.5" fill="#F4F4F6" sketch:type="MSShapeGroup" x="30.6666667" y="16.1142857" width="4.24242424" height="0.671428571"></rect>
                <rect id="Rectangle-path-19" fill="#4A4A4A" sketch:type="MSShapeGroup" x="0" y="40.2857143" width="40" height="6.71428571"></rect>
                <g id="Group-3" transform="translate(5.333333, 20.142857)" sketch:type="MSShapeGroup">
                    <rect id="Rectangle-path-12" fill="#F4F4F6" x="19.8111531" y="12.0857143" width="9.75401029" height="6.04285714"></rect>
                    <rect id="Rectangle-path-11" fill="#C8C8C8" x="10.0571429" y="12.0857143" width="9.75401029" height="6.04285714"></rect>
                    <rect id="Rectangle-path-10" fill="#F4F4F6" x="0.303132567" y="12.0857143" width="9.75401029" height="6.04285714"></rect>
                    <rect id="Rectangle-path-9" fill="#C8C8C8" x="19.8111531" y="6.04285714" width="9.75401029" height="6.04285714"></rect>
                    <rect id="Rectangle-path-8" fill="#F4F4F6" x="10.0571429" y="6.04285714" width="9.75401029" height="6.04285714"></rect>
                    <rect id="Rectangle-path-7" fill="#C8C8C8" x="0.303132567" y="6.04285714" width="9.75401029" height="6.04285714"></rect>
                    <rect id="Rectangle-path-6" fill="#F4F4F6" x="19.8111531" y="0" width="9.75401029" height="6.04285714"></rect>
                    <rect id="Rectangle-path-13" fill="#C8C8C8" x="10.0571429" y="0" width="9.75401029" height="6.04285714"></rect>
                    <rect id="Rectangle-path-5" fill="#F4F4F6" x="0.303132567" y="0" width="9.75401029" height="6.04285714"></rect>
                </g>
            </g>
        </g>
    </g>
</svg>