<?xml version="1.0" encoding="UTF-8" standalone="no"?>
<svg width="56px" height="22px" viewBox="0 0 56 22" version="1.1" xmlns="http://www.w3.org/2000/svg" xmlns:xlink="http://www.w3.org/1999/xlink" xmlns:sketch="http://www.bohemiancoding.com/sketch/ns">
    <!-- Generator: Sketch 3.2.1 (9971) - http://www.bohemiancoding.com/sketch -->
    <title>huge-logo</title>
    <desc>Created with Sketch.</desc>
    <defs></defs>
    <g id="Styleguide" stroke="none" stroke-width="1" fill="none" fill-rule="evenodd" sketch:type="MSPage">
        <g id="Home-v2" sketch:type="MSArtboardGroup" transform="translate(-230.000000, -30.000000)" fill="#FFFFFF">
            <g id="huge-logo" sketch:type="MSLayerGroup" transform="translate(230.000000, 30.000000)">
                <g id="Page-1" sketch:type="MSShapeGroup">
                    <g id="huge-logo">
                        <g id="Group">
                            <path d="M8.06676543,0 L8.06676543,9.164375 L4.37767901,9.164375 L4.37767901,0 L0.691358025,0 L0.691358025,22 L4.37767901,22 L4.37767901,12.832875 L8.06676543,12.832875 L8.06676543,22 L11.7530864,22 L11.7530864,0 L8.06676543,0" id="Shape"></path>
                            <path d="M22.5811358,0 L22.5811358,17.4136875 C22.5811358,17.9210625 22.1739259,18.3294375 21.6616296,18.3294375 L19.8191605,18.3294375 C19.310321,18.3294375 18.8948148,17.920375 18.8948148,17.4136875 L18.8948148,0 L15.2098765,0 L15.2098765,18.3294375 C15.2098765,20.35825 16.8636049,22 18.8948148,22 L22.5811358,22 C24.622716,22 26.2716049,20.35825 26.2716049,18.3294375 L26.2716049,0 L22.5811358,0" id="Shape"></path>
                            <path d="M56,3.664375 L56,0 L44.9382716,0 L44.9382716,22 L56,22 L56,18.3294375 L48.6239012,18.3294375 L48.6239012,12.832875 L52.3150617,12.832875 L52.3150617,9.164375 L48.6239012,9.164375 L48.6239012,3.664375 L56,3.664375" id="Shape"></path>
                            <path d="M41.4814815,5.4979375 L41.4814815,3.664375 C41.4814815,1.6396875 39.8263704,0 37.7896296,0 L34.1088395,0 C32.0727901,0 30.4197531,1.6396875 30.4197531,3.664375 L30.4197531,18.3294375 C30.4197531,20.35825 32.0693333,22 34.1088395,22 L37.7896296,22 C39.8263704,22 41.4814815,20.35825 41.4814815,18.3294375 L41.4814815,9.1636875 L35.952,9.1636875 L35.952,12.8321875 L37.7896296,12.8321875 L37.7896296,17.4164375 C37.7896296,17.920375 37.3803457,18.3294375 36.8715062,18.3294375 L35.0331852,18.3294375 C34.5201975,18.3294375 34.1088395,17.920375 34.1088395,17.4136875 L34.1088395,4.577375 C34.1088395,4.06725 34.5201975,3.664375 35.0331852,3.664375 L36.8715062,3.664375 C37.3796543,3.664375 37.7896296,4.06725 37.7896296,4.577375 L37.7896296,5.4979375 L41.4814815,5.4979375" id="Shape"></path>
                        </g>
                    </g>
                </g>
            </g>
        </g>
    </g>
</svg>